<svg width="24" height="24" viewBox="0 0 32 32" fill="none" xmlns="http://www.w3.org/2000/svg">
  <!-- DraftKings crown mark (monochrome) -->
  <g transform="translate(3.2, 3.096774)" fill="#FFFFFF">
    <path d="M22.7870968,2.37419355 C21.9612903,2.73548387 21.4709677,3.53548387 21.4193548,4.36129032 C21.4193548,4.36129032 21.4193548,4.36129032 21.4193548,4.36129032 C20.8,3.92258065 19.9741935,3.79354839 19.2258065,4.10322581 C19.2516129,4.20645161 19.2774194,4.28387097 19.3290323,4.38709677 C19.6129032,5.00645161 20.1548387,5.47096774 20.7741935,5.6516129 C20.4387097,6.19354839 19.9741935,6.65806452 19.4322581,7.01935484 L19.4322581,7.01935484 C19.2,7.17419355 18.9419355,7.2516129 18.6580645,7.27741935 C17.9096774,7.35483871 17.2387097,6.99354839 16.9032258,6.37419355 C16.6451613,6.83870968 16.1548387,7.2 15.5612903,7.27741935 C15.2516129,7.30322581 14.9419355,7.27741935 14.6580645,7.1483871 C14.5548387,7.09677419 14.4516129,7.01935484 14.3483871,6.94193548 C13.7548387,6.52903226 13.2387097,5.96129032 12.9032258,5.29032258 C12.7741935,5.03225806 12.6451613,4.7483871 12.5677419,4.46451613 C12.5935484,4.46451613 12.5935484,4.46451613 12.6193548,4.46451613 C13.316129,4.38709677 13.9612903,4 14.3483871,3.35483871 C14.4,3.27741935 14.4258065,3.22580645 14.4516129,3.1483871 C14.4,3.09677419 14.3225806,3.07096774 14.2451613,3.01935484 C13.6516129,2.68387097 13.0064516,2.60645161 12.3870968,2.78709677 C12.3096774,2.81290323 12.2322581,2.83870968 12.1806452,2.86451613 C12.2064516,2.03870968 11.5870968,0.825806452 10.8387097,0.361290323 C10.7612903,0.309677419 10.6322581,0.258064516 10.5548387,0.206451613 L10.4774194,0.180645161 L10.4258065,0.232258065 C10.3741935,0.309677419 10.3225806,0.387096774 10.2709677,0.464516129 C9.83225806,1.21290323 9.96129032,2.58064516 10.3741935,3.27741935 C10.2967742,3.27741935 10.2193548,3.30322581 10.1419355,3.30322581 C9.52258065,3.43225806 8.98064516,3.81935484 8.61935484,4.38709677 C8.56774194,4.46451613 8.54193548,4.51612903 8.51612903,4.59354839 C8.56774194,4.64516129 8.64516129,4.67096774 8.72258065,4.72258065 C9.36774194,5.10967742 10.1419355,5.13548387 10.7870968,4.87741935 C10.7870968,4.87741935 10.8129032,4.87741935 10.8129032,4.8516129 C10.8903226,5.16129032 10.916129,5.44516129 10.916129,5.75483871 C10.9419355,6.42580645 10.8129032,7.07096774 10.5548387,7.66451613 C10.5548387,7.66451613 10.5548387,7.66451613 10.5548387,7.66451613 C10.5548387,7.69032258 10.5290323,7.71612903 10.5290323,7.74193548 C10.5032258,7.79354839 10.4774194,7.84516129 10.4516129,7.92258065 C10.3741935,8.0516129 10.3225806,8.18064516 10.2193548,8.30967742 C10.0387097,8.54193548 9.78064516,8.7483871 9.47096774,8.8516129 C8.92903226,9.05806452 8.33548387,8.98064516 7.87096774,8.69677419 C7.87096774,9.39354839 7.43225806,10.0645161 6.73548387,10.3483871 C6.58064516,10.4 6.4,10.4516129 6.24516129,10.4516129 C5.49677419,10.4516129 4.8,10.2451613 4.15483871,9.90967742 C4.59354839,9.44516129 4.8516129,8.8 4.8,8.10322581 C4.8,8 4.77419355,7.81935484 4.7483871,7.71612903 C3.9483871,7.81935484 3.27741935,8.54193548 2.94193548,8.92903226 L2.94193548,8.92903226 C2.50322581,8.54193548 1.67741935,7.87096774 0.8,7.92258065 C0.593548387,7.9483871 0.387096774,8.02580645 0.206451613,8.10322581 C1.21290323,8.8516129 2.14193548,9.67741935 3.04516129,10.5290323 C3.66451613,11.1225806 4.28387097,11.7677419 4.8516129,12.4387097 C5.6516129,13.3419355 7.01935484,15.2 7.01935484,15.2 C7.2,15.4322581 7.87096774,15.7419355 8.33548387,15.6903226 C8.41290323,15.6903226 8.43870968,15.6129032 8.43870968,15.5612903 C8.43870968,15.5096774 8.36129032,15.483871 8.30967742,15.4580645 C7.89677419,15.2774194 7.76774194,15.0709677 7.63870968,14.7096774 C7.38064516,13.9096774 9.80645161,12.4387097 13.316129,11.5354839 C16.8516129,10.6322581 19.6903226,10.7354839 19.8451613,11.5870968 C19.9225806,11.9483871 19.8967742,12.2064516 19.6129032,12.5419355 C19.5870968,12.5677419 19.5354839,12.6451613 19.5612903,12.6967742 C19.5870968,12.7225806 19.6387097,12.7741935 19.716129,12.7483871 C20.1548387,12.5677419 20.5935484,11.9741935 20.6451613,11.6903226 C20.6451613,11.6903226 21.0322581,9.39354839 21.2903226,8.20645161 C21.4709677,7.35483871 21.7032258,6.50322581 21.9612903,5.67741935 C22.3225806,4.49032258 22.7870968,3.32903226 23.3032258,2.19354839 C23.1741935,2.21935484 22.9935484,2.27096774 22.7870968,2.37419355"/>
    <path d="M10.2709677,13.316129 C10.2709677,13.316129 13.083871,12.0516129 16.2322581,11.6645161 C16.2322581,11.6645161 20.2322581,12.2322581 20.2322581,16.9548387 C20.2322581,21.6516129 16.8774194,24.1548387 12.3354839,24.1548387 C7.76774194,24.1548387 5.36774194,22.1419355 5.36774194,20 C5.36774194,17.8580645 6.91612903,17.5225806 7.61290323,17.5225806 C8.33548387,17.5225806 9.62580645,18.1677419 9.62580645,19.8451613 C9.62580645,19.8451613 8.33548387,19.5354839 8.33548387,20.6451613 C8.33548387,21.7548387 9.85806452,22.4516129 11.9483871,22.4516129 C14.0387097,22.4516129 16.9806452,21.5483871 16.9806452,17.4709677 C16.9806452,13.1096774 14.9677419,12.9290323 13.5741935,12.9290323 L13.5741935,20.3870968 C13.5741935,20.3870968 13.6,21.0322581 14.2967742,21.0322581 C14.2967742,21.0322581 13.5483871,21.6516129 11.7419355,21.6516129 C9.90967742,21.6516129 9.39354839,21.0580645 9.39354839,21.0580645 C9.39354839,21.0580645 10.2451613,21.0580645 10.2451613,20.3096774 C10.2967742,19.5870968 10.2709677,13.316129 10.2709677,13.316129"/>
  </g>
</svg>