<svg width="24" height="24" viewBox="0 0 80 79" fill="none" xmlns="http://www.w3.org/2000/svg">
  <!-- FanDuel shield mark (monochrome), derived from FanDuel press-site SVG -->
  <path
    fill="#FFFFFF"
    d="M17.9427 30.1041C23.1764 27.6886 28.7054 26.2125 34.127 25.5683C34.7175 25.4878 34.959 25.8904 34.9054 26.3467C34.2075 30.5067 33.7513 34.7472 33.5634 38.9877C33.5097 39.4708 33.2681 39.7928 32.7045 39.9002C29.6985 40.4906 26.7729 41.4032 23.5253 42.8793C26.424 47.925 29.9669 52.5681 33.8318 56.4328C34.288 56.8891 34.5296 57.3722 34.6638 58.1773C35.6837 64.6723 37.4283 71.2209 39.7902 77.4207C39.9244 77.7696 39.9244 78.0111 39.7365 78.199C39.5218 78.4137 39.1729 78.4137 38.8508 78.199C15.3661 63.9745 1.22154 38.3704 0.97998 11.5049C0.97998 10.8607 1.1947 10.3776 1.75833 10.0824C14.212 3.07752 28.2223 -0.277317 42.2863 0.0179089C42.9036 0.0179089 43.1452 0.581521 42.9036 1.09146C40.9711 5.11726 39.3339 9.22358 38.0724 13.3299C37.9382 13.813 37.6162 14.0545 37.1062 14.0814C29.5911 14.4571 22.2639 16.1748 15.5539 18.966C16.0371 22.7771 16.8422 26.5077 17.9427 30.1041Z"
  />
  <path
    fill="#FFFFFF"
    d="M43.9235 14.1351C43.4672 14.0814 43.1452 13.6788 43.2794 13.1957C44.7555 8.90151 46.4464 4.87571 48.3789 1.11829C48.5936 0.662037 48.9962 0.501005 49.5062 0.554683C60.1078 1.73558 70.119 5.09042 79.0567 10.0824C79.5935 10.3776 79.835 10.8607 79.835 11.5049C79.6471 36.9479 66.9251 61.2638 45.4802 75.9982C45.0776 76.2934 44.5408 76.1324 44.3798 75.6493C42.8231 71.4625 41.5616 67.222 40.6491 63.1157C40.5149 62.5789 40.6491 62.1495 41.0785 61.8274C54.0689 51.6019 63.1407 36.3307 65.3416 18.966C58.739 16.2285 51.5728 14.5376 43.9772 14.1351H43.9235Z"
  />
</svg>

